<svg width="17" height="17" viewBox="0 0 17 17" fill="none" xmlns="http://www.w3.org/2000/svg">
<path d="M15.4469 7.11208H14.8763V7.08268H8.5013V9.91602H12.5044C11.9204 11.5654 10.3511 12.7493 8.5013 12.7493C6.15424 12.7493 4.2513 10.8464 4.2513 8.49935C4.2513 6.15229 6.15424 4.24935 8.5013 4.24935C9.5847 4.24935 10.5703 4.65806 11.3208 5.32566L13.3243 3.32214C12.0593 2.14312 10.3671 1.41602 8.5013 1.41602C4.58953 1.41602 1.41797 4.58758 1.41797 8.49935C1.41797 12.4111 4.58953 15.5827 8.5013 15.5827C12.4131 15.5827 15.5846 12.4111 15.5846 8.49935C15.5846 8.02441 15.5358 7.56081 15.4469 7.11208Z" fill="#FFC107"/>
<path d="M2.23438 5.20241L4.5616 6.90914C5.19131 5.3501 6.71635 4.24935 8.501 4.24935C9.5844 4.24935 10.57 4.65806 11.3205 5.32566L13.324 3.32214C12.059 2.14312 10.3667 1.41602 8.501 1.41602C5.78029 1.41602 3.42083 2.95204 2.23438 5.20241Z" fill="#FF3D00"/>
<path d="M8.50125 15.5831C10.3309 15.5831 11.9933 14.8829 13.2503 13.7443L11.058 11.8891C10.3229 12.4481 9.42472 12.7505 8.50125 12.7498C6.65887 12.7498 5.09452 11.575 4.50519 9.93555L2.19531 11.7152C3.3676 14.0092 5.74831 15.5831 8.50125 15.5831Z" fill="#4CAF50"/>
<path d="M15.4456 7.11338H14.875V7.08398H8.5V9.91732H12.5031C12.2238 10.7023 11.7206 11.3882 11.0557 11.8904L11.0567 11.8897L13.249 13.7448C13.0939 13.8858 15.5833 12.0423 15.5833 8.50065C15.5833 8.02571 15.5345 7.56211 15.4456 7.11338Z" fill="#1976D2"/>
</svg>
