<svg width="32" height="32" viewBox="0 0 32 32" fill="none" xmlns="http://www.w3.org/2000/svg">
<path d="M15.9987 16.0007C14.532 16.0007 13.2765 15.4784 12.232 14.434C11.1876 13.3895 10.6654 12.134 10.6654 10.6673C10.6654 9.20065 11.1876 7.9451 12.232 6.90065C13.2765 5.85621 14.532 5.33398 15.9987 5.33398C17.4654 5.33398 18.7209 5.85621 19.7654 6.90065C20.8098 7.9451 21.332 9.20065 21.332 10.6673C21.332 12.134 20.8098 13.3895 19.7654 14.434C18.7209 15.4784 17.4654 16.0007 15.9987 16.0007ZM5.33203 24.0007V22.934C5.33203 22.1784 5.52648 21.484 5.91536 20.8507C6.30425 20.2173 6.82092 19.734 7.46536 19.4007C8.84314 18.7118 10.2431 18.1951 11.6654 17.8507C13.0876 17.5062 14.532 17.334 15.9987 17.334C17.4654 17.334 18.9098 17.5062 20.332 17.8507C21.7543 18.1951 23.1543 18.7118 24.532 19.4007C25.1765 19.734 25.6931 20.2173 26.082 20.8507C26.4709 21.484 26.6654 22.1784 26.6654 22.934V24.0007C26.6654 24.734 26.4043 25.3618 25.882 25.884C25.3598 26.4062 24.732 26.6673 23.9987 26.6673H7.9987C7.26536 26.6673 6.63759 26.4062 6.11536 25.884C5.59314 25.3618 5.33203 24.734 5.33203 24.0007ZM7.9987 24.0007H23.9987V22.934C23.9987 22.6895 23.9376 22.4673 23.8154 22.2673C23.6931 22.0673 23.532 21.9118 23.332 21.8007C22.132 21.2007 20.9209 20.7507 19.6987 20.4507C18.4765 20.1507 17.2431 20.0007 15.9987 20.0007C14.7543 20.0007 13.5209 20.1507 12.2987 20.4507C11.0765 20.7507 9.86537 21.2007 8.66536 21.8007C8.46536 21.9118 8.30425 22.0673 8.18203 22.2673C8.05981 22.4673 7.9987 22.6895 7.9987 22.934V24.0007ZM15.9987 13.334C16.732 13.334 17.3598 13.0729 17.882 12.5507C18.4043 12.0284 18.6654 11.4007 18.6654 10.6673C18.6654 9.93398 18.4043 9.30621 17.882 8.78398C17.3598 8.26176 16.732 8.00065 15.9987 8.00065C15.2654 8.00065 14.6376 8.26176 14.1154 8.78398C13.5931 9.30621 13.332 9.93398 13.332 10.6673C13.332 11.4007 13.5931 12.0284 14.1154 12.5507C14.6376 13.0729 15.2654 13.334 15.9987 13.334Z" fill="#CFF80B"/>
</svg>
