<svg width="24" height="24" viewBox="0 0 24 24" fill="none" xmlns="http://www.w3.org/2000/svg">
<path d="M18 8C19.6569 8 21 6.65685 21 5C21 3.34315 19.6569 2 18 2C16.3431 2 15 3.34315 15 5C15 6.65685 16.3431 8 18 8Z" stroke="black" stroke-width="1.5" stroke-linecap="round" stroke-linejoin="round"/>
<path d="M6 22C7.65685 22 9 20.6569 9 19C9 17.3431 7.65685 16 6 16C4.34315 16 3 17.3431 3 19C3 20.6569 4.34315 22 6 22Z" stroke="black" stroke-width="1.5" stroke-linecap="round" stroke-linejoin="round"/>
<path d="M12 5H8.5C7.57174 5 6.6815 5.36875 6.02513 6.02513C5.36875 6.6815 5 7.57174 5 8.5C5 9.42826 5.36875 10.3185 6.02513 10.9749C6.6815 11.6313 7.57174 12 8.5 12H15.5C15.9596 12 16.4148 12.0905 16.8394 12.2664C17.264 12.4423 17.6499 12.7001 17.9749 13.0251C18.2999 13.3501 18.5577 13.736 18.7336 14.1606C18.9095 14.5852 19 15.0404 19 15.5C19 15.9596 18.9095 16.4148 18.7336 16.8394C18.5577 17.264 18.2999 17.6499 17.9749 17.9749C17.6499 18.2999 17.264 18.5577 16.8394 18.7336C16.4148 18.9095 15.9596 19 15.5 19H12" stroke="black" stroke-width="1.5" stroke-linecap="round" stroke-linejoin="round"/>
</svg>
