<svg width="19" height="19" viewBox="0 0 19 19" fill="none" xmlns="http://www.w3.org/2000/svg">
<path d="M19 8.82143H17.6089C17.4461 6.90534 16.611 5.10854 15.2512 3.74878C13.8915 2.38902 12.0947 1.55389 10.1786 1.39107V0H8.82143V1.39107C6.90534 1.55389 5.10854 2.38902 3.74878 3.74878C2.38902 5.10854 1.55389 6.90534 1.39107 8.82143H0V10.1786H1.39107C1.55389 12.0947 2.38902 13.8915 3.74878 15.2512C5.10854 16.611 6.90534 17.4461 8.82143 17.6089V19H10.1786V17.6089C12.0947 17.4461 13.8915 16.611 15.2512 15.2512C16.611 13.8915 17.4461 12.0947 17.6089 10.1786H19V8.82143ZM10.1786 16.2518H8.82143C7.26491 16.0928 5.81084 15.4019 4.70449 14.2955C3.59813 13.1892 2.9072 11.7351 2.74821 10.1786V8.82143C2.9072 7.26491 3.59813 5.81084 4.70449 4.70449C5.81084 3.59813 7.26491 2.9072 8.82143 2.74821H10.1786C11.7351 2.9072 13.1892 3.59813 14.2955 4.70449C15.4019 5.81084 16.0928 7.26491 16.2518 8.82143V10.1786C16.0928 11.7351 15.4019 13.1892 14.2955 14.2955C13.1892 15.4019 11.7351 16.0928 10.1786 16.2518Z" fill="#CFF80B"/>
</svg>
