<svg width="22" height="24" viewBox="0 0 22 24" fill="none" xmlns="http://www.w3.org/2000/svg">
<path d="M2.9987 21.3327H6.9987V14.666C6.9987 14.2882 7.12648 13.9716 7.38203 13.716C7.63759 13.4605 7.95425 13.3327 8.33203 13.3327H13.6654C14.0431 13.3327 14.3598 13.4605 14.6154 13.716C14.8709 13.9716 14.9987 14.2882 14.9987 14.666V21.3327H18.9987V9.33268L10.9987 3.33268L2.9987 9.33268V21.3327ZM0.332031 21.3327V9.33268C0.332031 8.91046 0.426476 8.51046 0.615365 8.13268C0.804253 7.7549 1.06536 7.44379 1.3987 7.19935L9.3987 1.19935C9.86537 0.843793 10.3987 0.666016 10.9987 0.666016C11.5987 0.666016 12.132 0.843793 12.5987 1.19935L20.5987 7.19935C20.932 7.44379 21.1931 7.7549 21.382 8.13268C21.5709 8.51046 21.6654 8.91046 21.6654 9.33268V21.3327C21.6654 22.066 21.4043 22.6938 20.882 23.216C20.3598 23.7382 19.732 23.9993 18.9987 23.9993H13.6654C13.2876 23.9993 12.9709 23.8716 12.7154 23.616C12.4598 23.3605 12.332 23.0438 12.332 22.666V15.9993H9.66537V22.666C9.66537 23.0438 9.53759 23.3605 9.28203 23.616C9.02648 23.8716 8.70981 23.9993 8.33203 23.9993H2.9987C2.26536 23.9993 1.63759 23.7382 1.11536 23.216C0.593142 22.6938 0.332031 22.066 0.332031 21.3327Z" fill="#CFF80B"/>
</svg>
